{"title":"The Coven 2015 Movies DVDRip XViD New Source with Sample ~ â˜»rDXâ˜»","uid":11714423,"size":742517553,"categoryP":"video","categoryS":"movies","magnet":"?xt=urn:btih:b19ab8f05a3f0d6ccf7f11d7a4cd0e059ab7c4b3&amp;dn=The+Coven+2015+Movies+DVDRip+XViD+New+Source+with+Sample+%7E+%E2%98%BBrDX%E2%98%BB&amp;tr=udp%3A%2F%2Ftracker.openbittorrent.com%3A80&amp;tr=udp%3A%2F%2Fopen.demonii.com%3A1337&amp;tr=udp%3A%2F%2Ftracker.coppersurfer.tk%3A6969&amp;tr=udp%3A%2F%2Fexodus.desync.com%3A6969","seeders":6,"leechers":5,"uploader":"basicssom","files":2,"time":1424494211,"description":"----------------------------------------------------------------\nThe Coven 2015 English Movies DVDRip XViD AAC New Source with Sample ~ â˜»rDXâ˜»\n\nSCREEN SHOTS &amp; POSTER:\n &lt;a href=&quot;\nhttp://planethost.co.nr/2015/2/TheCoven/11.html&quot; rel=&quot;nofollow&quot; target=&quot;_NEW&quot;&gt;\nhttp://planethost.co.nr/2015/2/TheCoven/11.html&lt;/a&gt; &lt;a href=&quot;\nhttp://planethost.co.nr/2015/2/TheCoven/1.html&quot; rel=&quot;nofollow&quot; target=&quot;_NEW&quot;&gt;\nhttp://planethost.co.nr/2015/2/TheCoven/1.html&lt;/a&gt; &lt;a href=&quot;\nhttp://planethost.co.nr/2015/2/TheCoven/2.html&quot; rel=&quot;nofollow&quot; target=&quot;_NEW&quot;&gt;\nhttp://planethost.co.nr/2015/2/TheCoven/2.html&lt;/a&gt; &lt;a href=&quot;\nhttp://planethost.co.nr/2015/2/TheCoven/3.html&quot; rel=&quot;nofollow&quot; target=&quot;_NEW&quot;&gt;\nhttp://planethost.co.nr/2015/2/TheCoven/3.html&lt;/a&gt; &lt;a href=&quot;\nhttp://planethost.co.nr/2015/2/TheCoven/4.html&quot; rel=&quot;nofollow&quot; target=&quot;_NEW&quot;&gt;\nhttp://planethost.co.nr/2015/2/TheCoven/4.html&lt;/a&gt; &lt;a href=&quot;\nhttp://planethost.co.nr/2015/2/TheCoven/5.html&quot; rel=&quot;nofollow&quot; target=&quot;_NEW&quot;&gt;\nhttp://planethost.co.nr/2015/2/TheCoven/5.html&lt;/a&gt; &lt;a href=&quot;\nhttp://planethost.co.nr/2015/2/TheCoven/6.html&quot; rel=&quot;nofollow&quot; target=&quot;_NEW&quot;&gt;\nhttp://planethost.co.nr/2015/2/TheCoven/6.html&lt;/a&gt; &lt;a href=&quot;\nhttp://planethost.co.nr/2015/2/TheCoven/7.html&quot; rel=&quot;nofollow&quot; target=&quot;_NEW&quot;&gt;\nhttp://planethost.co.nr/2015/2/TheCoven/7.html&lt;/a&gt; &lt;a href=&quot;\nhttp://planethost.co.nr/2015/2/TheCoven/8.html&quot; rel=&quot;nofollow&quot; target=&quot;_NEW&quot;&gt;\nhttp://planethost.co.nr/2015/2/TheCoven/8.html&lt;/a&gt; &lt;a href=&quot;\nhttp://planethost.co.nr/2015/2/TheCoven/9.html&quot; rel=&quot;nofollow&quot; target=&quot;_NEW&quot;&gt;\nhttp://planethost.co.nr/2015/2/TheCoven/9.html&lt;/a&gt; &lt;a href=&quot;\nhttp://planethost.co.nr/2015/2/TheCoven/10.html&quot; rel=&quot;nofollow&quot; target=&quot;_NEW&quot;&gt;\nhttp://planethost.co.nr/2015/2/TheCoven/10.html&lt;/a&gt;\n\nFormat                                   : Matroska\nFormat version                           : Version 4 / Version 2\nFile size                                : 693 MiB\nDuration                                 : 1h 26mn\nOverall bit rate                         : 1 119 Kbps\nMovie name                               : The Coven 2015 English Movies DVDRip XViD AAC ~ rDX ~\n\nVideo\nID                                       : 1\nFormat                                   : MPEG-4 Visual\nFormat profile                           : Advanced Simple@L5\nFormat settings, BVOP                    : Yes\nFormat settings, QPel                    : No\nFormat settings, GMC                     : No warppoints\nFormat settings, Matrix                  : Default (H.263)\nCodec ID                                 : V_MS/VFW/FOURCC / XVID\nCodec ID/Hint                            : XviD\nDuration                                 : 1h 26mn\nBit rate                                 : 969 Kbps\nWidth                                    : 640 pixels\nHeight                                   : 352 pixels\nDisplay aspect ratio                     : 16:9\nFrame rate mode                          : Constant\nFrame rate                               : 25.000 fps\nColor space                              : YUV\nChroma subsampling                       : 4:2:0\nBit depth                                : 8 bits\nScan type                                : Progressive\nCompression mode                         : Lossy\nBits/(Pixel*Frame)                       : 0.172\nStream size                              : 600 MiB (87%)\nTitle                                    : ~ rDX ~\nWriting library                          : XviD 64\nDefault                                  : Yes\nForced                                   : No\n\nAudio\nID                                       : 2\nFormat                                   : MPEG Audio\nFormat version                           : Version 1\nFormat profile                           : Layer 3\nMode                                     : Joint stereo\nMode extension                           : MS Stereo\nCodec ID                                 : A_MPEG/L3\nCodec ID/Hint                            : MP3\nDuration                                 : 1h 26mn\nBit rate mode                            : Constant\nBit rate                                 : 128 Kbps\nChannel(s)                               : 2 channels\nSampling rate                            : 48.0 KHz\nCompression mode                         : Lossy\nStream size                              : 79.3 MiB (11%)\nTitle                                    : ~ rDX ~\nWriting library                          : LAME3.99r\nEncoding settings                        : -m j -V 4 -q 3 -lowpass 17 -b 128\nDefault                                  : Yes\nForced                                   : No","torrent":{"xt":"urn:btih:b19ab8f05a3f0d6ccf7f11d7a4cd0e059ab7c4b3","amp;dn":"The+Coven+2015+Movies+DVDRip+XViD+New+Source+with+Sample+%7E+%E2%98%BBrDX%E2%98%BB","amp;tr":["udp%3A%2F%2Ftracker.openbittorrent.com%3A80","udp%3A%2F%2Fopen.demonii.com%3A1337","udp%3A%2F%2Ftracker.coppersurfer.tk%3A6969","udp%3A%2F%2Fexodus.desync.com%3A6969"],"infoHash":"b19ab8f05a3f0d6ccf7f11d7a4cd0e059ab7c4b3","infoHashBuffer":{"type":"Buffer","data":[177,154,184,240,90,63,13,108,207,127,17,215,164,205,14,5,154,183,196,179]},"announce":[],"urlList":[]}}